<svg width="36" height="36" viewBox="0 0 36 36" fill="none" xmlns="http://www.w3.org/2000/svg">
<path d="M33.1826 2.82376C32.4861 2.12712 31.6592 1.57451 30.7491 1.19748C29.839 0.820458 28.8636 0.626404 27.8785 0.626404C26.8934 0.626404 25.9179 0.820458 25.0078 1.19748C24.0977 1.57451 23.2708 2.12712 22.5743 2.82376L1.36039 24.0353C1.12814 24.2674 0.9439 24.5429 0.818219 24.8463C0.692538 25.1496 0.627876 25.4747 0.62793 25.803V32.8735C0.627755 33.2019 0.692299 33.527 0.817874 33.8304C0.943449 34.1338 1.12759 34.4095 1.35977 34.6417C1.59195 34.8738 1.86762 35.058 2.17101 35.1836C2.47441 35.3091 2.79958 35.3737 3.12793 35.3735H10.201C10.5293 35.3736 10.8544 35.3089 11.1577 35.1832C11.461 35.0575 11.7365 34.8733 11.9686 34.6411L33.1853 13.4295C34.5869 12.0204 35.3735 10.1136 35.373 8.12607C35.3725 6.13858 34.585 4.23216 33.1826 2.82376ZM29.6451 6.35905C30.1128 6.82832 30.3756 7.46368 30.376 8.12618C30.3765 8.78868 30.1146 9.4244 29.6476 9.8943L27.8796 11.6622L24.3425 8.12634L26.1098 6.35905C26.3419 6.12687 26.6175 5.9427 26.9208 5.81704C27.224 5.69138 27.5491 5.6267 27.8774 5.6267C28.2057 5.6267 28.5307 5.69138 28.834 5.81704C29.1373 5.9427 29.4131 6.12687 29.6451 6.35905ZM9.16597 30.3734H5.62847V26.8382L20.8068 11.6613L24.3438 15.1972L9.16597 30.3734Z" fill="black"/>
</svg>
