<svg width="50" height="50" viewBox="0 0 50 50" fill="none" xmlns="http://www.w3.org/2000/svg">
<path fill-rule="evenodd" clip-rule="evenodd" d="M24.9998 33.3333C20.4346 33.3333 16.7362 29.6033 16.7362 25C16.7362 20.3967 20.4346 16.6667 24.9998 16.6667C29.565 16.6667 33.2651 20.3967 33.2651 25C33.2651 29.6033 29.565 33.3333 24.9998 33.3333ZM48.3474 30.8934L44.4756 28.64C44.6923 27.4566 44.8356 26.2483 44.8356 25C44.8356 23.7533 44.6923 22.5433 44.4756 21.36L48.3474 19.1066C49.9291 18.1866 50.4692 16.1467 49.5558 14.5533L46.2507 8.78001C45.339 7.18668 43.3155 6.63835 41.7355 7.56002L37.8237 9.835C35.9969 8.26833 33.9202 6.98665 31.6118 6.16165V3.33333C31.6118 1.49333 30.1317 0 28.305 0H21.6947C19.8679 0 18.3879 1.49333 18.3879 3.33333V6.16165C16.0795 6.98665 14.0027 8.26833 12.176 9.835L8.26416 7.56002C6.68409 6.63835 4.66068 7.18668 3.74898 8.78001L0.443845 14.5533C-0.469525 16.1467 0.0721609 18.1866 1.65222 19.1066L5.52405 21.36C5.30738 22.5433 5.16403 23.7533 5.16403 25C5.16403 26.2483 5.30738 27.4566 5.52405 28.64L1.65222 30.8934C0.0721609 31.8134 -0.469525 33.8533 0.443845 35.4467L3.74898 41.22C4.66068 42.8133 6.68409 43.3616 8.26416 42.44L12.176 40.165C14.0027 41.7317 16.0795 43.015 18.3879 43.8383V46.6667C18.3879 48.5067 19.8679 50 21.6947 50H28.305C30.1317 50 31.6118 48.5067 31.6118 46.6667V43.8383C33.9202 43.015 35.9969 41.7317 37.8237 40.165L41.7355 42.44C43.3155 43.3616 45.339 42.8133 46.2507 41.22L49.5558 35.4467C50.4692 33.8533 49.9291 31.8134 48.3474 30.8934ZM24.9998 20C22.2614 20 20.0413 22.24 20.0413 25C20.0413 27.7617 22.2614 30 24.9998 30C27.7383 30 29.9583 27.7617 29.9583 25C29.9583 22.24 27.7383 20 24.9998 20Z" fill="black"/>
</svg>
